HIERARCHY
ROOT joint_0
{
	OFFSET 0.000000 0.000000 0.000000
	CHANNELS 6 Xposition Yposition Zposition Zrotation Yrotation Xrotation 
	JOINT joint_1
	{
		OFFSET 7.566162 2.250183 114.799927
		CHANNELS 3 Zrotation Yrotation Xrotation
		JOINT joint_2
		{
			OFFSET -5.201660 -0.414001 104.936035
			CHANNELS 3 Zrotation Yrotation Xrotation
			JOINT joint_3
			{
				OFFSET -6.923584 -0.419739 104.718018
				CHANNELS 3 Zrotation Yrotation Xrotation
				JOINT joint_4
				{
					OFFSET 3.108887 2.881104 149.449951
					CHANNELS 3 Zrotation Yrotation Xrotation
					JOINT joint_5
					{
						OFFSET 19.988770 5.920349 90.786987
						CHANNELS 3 Zrotation Yrotation Xrotation
						End Site
						{
							OFFSET 0.000000 0.000000 0.000000
						}
					}
				}
				JOINT joint_6
				{
					OFFSET 9.283936 -30.015930 84.410034
					CHANNELS 3 Zrotation Yrotation Xrotation
					JOINT joint_7
					{
						OFFSET 47.243164 -155.716736 -23.241089
						CHANNELS 3 Zrotation Yrotation Xrotation
						JOINT joint_8
						{
							OFFSET 31.323730 -15.356873 -268.798950
							CHANNELS 3 Zrotation Yrotation Xrotation
							JOINT joint_9
							{
								OFFSET 28.122314 -2.114624 -262.450012
								CHANNELS 3 Zrotation Yrotation Xrotation
								End Site
								{
									OFFSET 0.000000 0.000000 0.000000
								}
							}
						}
					}
				}
				JOINT joint_10
				{
					OFFSET -5.580566 33.311218 83.498047
					CHANNELS 3 Zrotation Yrotation Xrotation
					JOINT joint_11
					{
						OFFSET -22.773438 160.515381 -27.138062
						CHANNELS 3 Zrotation Yrotation Xrotation
						JOINT joint_12
						{
							OFFSET 27.004395 30.848877 -267.937988
							CHANNELS 3 Zrotation Yrotation Xrotation
							JOINT joint_13
							{
								OFFSET 32.625000 14.824585 -261.518005
								CHANNELS 3 Zrotation Yrotation Xrotation
								End Site
								{
									OFFSET 0.000000 0.000000 0.000000
								}
							}
						}
					}
				}
			}
		}
	}
	JOINT joint_14
	{
		OFFSET 20.623535 -83.447632 -106.174011
		CHANNELS 3 Zrotation Yrotation Xrotation
		JOINT joint_15
		{
			OFFSET 0.661865 -23.563843 -459.915039
			CHANNELS 3 Zrotation Yrotation Xrotation
			JOINT joint_16
			{
				OFFSET -23.461670 -28.727966 -444.760971
				CHANNELS 3 Zrotation Yrotation Xrotation
				JOINT joint_17
				{
					OFFSET 178.992920 54.047363 -80.113001
					CHANNELS 3 Zrotation Yrotation Xrotation
					End Site
					{
						OFFSET 0.000000 0.000000 0.000000
					}
				}
			}
		}
	}
	JOINT joint_18
	{
		OFFSET -19.571533 84.686279 -105.380005
		CHANNELS 3 Zrotation Yrotation Xrotation
		JOINT joint_19
		{
			OFFSET -22.949951 3.639404 -459.933044
			CHANNELS 3 Zrotation Yrotation Xrotation
			JOINT joint_20
			{
				OFFSET -33.690674 4.092651 -445.010971
				CHANNELS 3 Zrotation Yrotation Xrotation
				JOINT joint_21
				{
					OFFSET 187.419678 18.953857 -76.759001
					CHANNELS 3 Zrotation Yrotation Xrotation
					End Site
					{
						OFFSET 0.000000 0.000000 0.000000
					}
				}
			}
		}
	}
}
MOTION
Frames: 11
Frame Time: 0.016667
-2530.175049 849.443909 1123.021973 -1.697571 10.963394 -0.035098 1.035552 0.562014 3.423401 0.873119 -0.112754 -0.709948 1.014234 0.030077 0.471886 -0.193199 -7.422112 3.092948 0.000000 0.000000 0.000000 4.261117 7.688599 -5.474626 -9.145190 6.776658 -10.145939 -0.344548 -44.186494 56.320631 0.000000 0.000000 0.000000 2.271234 9.732104 -1.154216 4.651839 10.079342 8.508683 -4.228881 -67.687923 -16.179973 0.000000 0.000000 0.000000 -0.922446 -1.801413 -4.820022 -1.753281 13.388627 -2.349262 -1.488303 1.640725 -1.076110 0.000000 0.000000 0.000000 1.570832 -16.731714 13.341840 1.063084 45.443766 -8.007700 1.742517 -2.787528 0.829783 0.000000 0.000000 0.000000 
-2514.956299 853.445862 1121.661987 -1.108190 10.597034 0.179040 0.900591 0.706931 3.200963 0.755291 -0.143432 -0.701462 0.877214 0.068187 0.454599 -0.226095 -7.432053 3.204439 0.000000 0.000000 0.000000 4.592669 7.827340 -5.377985 -9.065544 6.943888 -9.852070 -0.348801 -42.420094 57.800442 0.000000 0.000000 0.000000 2.227697 9.625658 -1.132821 4.782433 10.018396 8.819162 -4.385174 -68.176732 -18.602938 0.000000 0.000000 0.000000 -1.253371 -1.104243 -5.050958 -2.017633 14.416937 -2.603078 -1.676615 2.099707 -1.291638 0.000000 0.000000 0.000000 1.223819 -17.345580 13.412765 1.166118 42.687820 -7.278716 2.007830 -3.967008 1.043860 0.000000 0.000000 0.000000 
-2499.669434 857.544800 1119.237061 -0.658624 10.342051 0.396270 0.834885 0.755869 2.892607 0.701301 -0.140382 -0.641506 0.802057 0.089288 0.421143 -0.264390 -7.443275 3.321038 0.000000 0.000000 0.000000 4.825787 7.966660 -5.315135 -8.813030 7.273641 -9.115728 -0.278640 -41.438664 57.895846 0.000000 0.000000 0.000000 2.099118 9.168294 -1.130826 4.968332 9.722900 9.243418 -4.533759 -67.497069 -21.436286 0.000000 0.000000 0.000000 -1.454314 -0.872802 -5.288439 -2.275314 16.101306 -2.937798 -1.822963 2.470326 -1.462679 0.000000 0.000000 0.000000 0.701234 -17.849563 13.441805 1.142126 39.243852 -6.543871 1.785853 -5.293683 1.122622 0.000000 0.000000 0.000000 
-2484.318604 861.884277 1115.753052 -0.371515 10.098874 0.566550 0.824583 0.847575 2.602795 0.697088 -0.153237 -0.583700 0.781245 0.109368 0.377840 -0.306260 -7.460227 3.446406 0.000000 0.000000 0.000000 5.022501 8.101025 -5.268615 -8.511363 7.655925 -8.251630 -0.188390 -40.862319 57.388259 0.000000 0.000000 0.000000 1.908246 8.514163 -1.160644 5.187798 9.294091 9.711409 -4.659911 -66.083190 -24.502766 0.000000 0.000000 0.000000 -1.562796 -0.970756 -5.523884 -2.511127 18.378676 -3.331888 -1.908580 2.701650 -1.566411 0.000000 0.000000 0.000000 0.072946 -18.106097 13.487892 1.012254 35.055697 -5.800035 1.297983 -6.315044 1.079256 0.000000 0.000000 0.000000 
-2468.883301 866.885864 1111.151978 -0.356103 9.790675 0.592624 0.863876 1.041215 2.503662 0.723782 -0.190335 -0.580627 0.798972 0.139824 0.341153 -0.343603 -7.458425 3.565929 0.000000 0.000000 0.000000 5.225209 8.311355 -5.303044 -8.375342 7.965153 -7.907639 -0.182862 -40.247663 57.544115 0.000000 0.000000 0.000000 1.728521 8.138873 -1.163625 5.379367 9.068962 9.981634 -4.728572 -65.035031 -27.222191 0.000000 0.000000 0.000000 -1.526833 -1.448761 -5.857682 -2.665064 21.520552 -3.634457 -1.839879 2.414755 -1.448758 0.000000 0.000000 0.000000 -0.648960 -18.133558 13.674352 0.752867 30.690991 -5.275775 0.642381 -6.702953 0.900432 0.000000 0.000000 0.000000 
-2452.979736 872.923767 1104.953003 -0.606381 9.464343 0.506694 0.922542 1.180435 2.434512 0.765230 -0.165603 -0.509895 0.824403 0.169559 0.315824 -0.374754 -7.408482 3.676404 0.000000 0.000000 0.000000 5.397562 8.609460 -5.443332 -8.426273 8.108787 -8.397417 -0.252319 -39.039140 58.946743 0.000000 0.000000 0.000000 1.623727 8.297039 -1.054005 5.451669 9.212678 9.806712 -4.752018 -64.749815 -29.142606 0.000000 0.000000 0.000000 -1.389955 -2.404917 -6.426119 -2.766776 25.701850 -3.786420 -1.655458 1.496179 -1.084348 0.000000 0.000000 0.000000 -1.666274 -17.963954 14.024065 0.212001 25.570034 -5.049927 -0.293204 -6.497857 0.545365 0.000000 0.000000 0.000000 
-2436.991699 879.624756 1097.635986 -1.202637 9.046433 0.328806 1.066554 1.475708 2.436653 0.865011 -0.193031 -0.431826 0.902548 0.210665 0.294433 -0.401208 -7.340485 3.776967 0.000000 0.000000 0.000000 5.569845 9.001615 -5.646399 -8.596912 8.177379 -9.421477 -0.388346 -37.707678 60.952176 0.000000 0.000000 0.000000 1.523015 8.750637 -0.904019 5.492859 9.577158 9.430022 -4.726955 -64.879881 -30.700574 0.000000 0.000000 0.000000 -1.089810 -3.680933 -7.146131 -2.690707 30.593147 -3.888550 -1.309961 0.445197 -0.603620 0.000000 0.000000 0.000000 -2.777988 -17.405958 14.429803 -0.538023 20.039682 -4.732458 -1.224255 -5.439810 0.088214 0.000000 0.000000 0.000000 
-2422.041260 886.296021 1090.578979 -2.024255 8.518130 0.196535 1.299498 2.035100 2.594954 0.988143 -0.325531 -0.476259 1.004507 0.300683 0.277806 -0.420834 -7.310983 3.858127 0.000000 0.000000 0.000000 5.890894 9.578547 -5.895077 -9.017082 8.340864 -10.696253 -0.743746 -37.408100 63.050547 0.000000 0.000000 0.000000 1.290094 9.246878 -0.851779 5.740471 10.046314 9.315175 -4.585380 -65.490679 -32.664973 0.000000 0.000000 0.000000 -0.511805 -5.189401 -8.053874 -2.302804 35.826238 -3.872913 -0.614090 -0.362456 -0.052130 0.000000 0.000000 0.000000 -3.572608 -16.866033 14.637327 -1.093757 17.012580 -4.328685 -1.793552 -4.449487 -0.230768 0.000000 0.000000 0.000000 
-2408.453857 893.468506 1083.532959 -2.819678 8.063204 0.431599 1.505054 2.469906 2.601645 1.088227 -0.383525 -0.540690 1.084040 0.461025 0.286668 -0.433957 -7.342378 3.914918 0.000000 0.000000 0.000000 6.519290 10.634289 -6.255337 -10.067379 8.791175 -12.413628 -1.689534 -39.206345 65.556563 0.000000 0.000000 0.000000 0.774625 9.834084 -1.014667 6.368699 10.723045 9.723918 -4.240328 -67.129064 -35.553048 0.000000 0.000000 0.000000 0.465743 -7.198033 -9.732080 -1.514540 41.635210 -3.288828 0.864687 -0.772361 0.684343 0.000000 0.000000 0.000000 -4.026299 -17.094711 14.254754 -1.182406 18.966514 -4.317694 -2.024242 -5.244200 -0.232972 0.000000 0.000000 0.000000 
-2395.902100 900.612183 1076.745972 -3.663672 7.622012 0.917541 1.726137 2.950593 2.402052 1.164266 -0.446343 -0.549160 1.120970 0.676437 0.306397 -0.439290 -7.424369 3.951328 0.000000 0.000000 0.000000 7.260056 11.905167 -6.586966 -11.511533 9.242133 -14.473135 -3.031304 -42.138365 68.313786 0.000000 0.000000 0.000000 0.118682 10.442457 -1.313574 7.260232 11.479595 10.411813 -3.713159 -69.299005 -38.916882 0.000000 0.000000 0.000000 1.633978 -9.503969 -11.855772 -0.500103 47.597021 -2.515498 2.914101 -0.714991 1.555447 0.000000 0.000000 0.000000 -4.239607 -17.662750 13.510980 -0.950945 23.663771 -4.716760 -2.137235 -6.760514 -0.111234 0.000000 0.000000 0.000000 
-2384.532227 905.437744 1072.334961 -4.498849 7.103874 1.334104 1.975614 3.804978 2.186709 1.122672 -0.640936 -0.558868 1.014304 0.915846 0.308605 -0.434576 -7.538557 3.985775 0.000000 0.000000 0.000000 7.806217 12.580431 -6.712482 -12.497987 9.281742 -16.028166 -3.921499 -44.371830 70.079880 0.000000 0.000000 0.000000 -0.335501 10.651208 -1.510909 8.217514 11.882840 11.046739 -3.136740 -70.459271 -42.119898 0.000000 0.000000 0.000000 2.489696 -11.713701 -13.280150 0.279987 52.829830 -2.579278 4.436802 -0.569331 2.353717 0.000000 0.000000 0.000000 -4.287518 -17.832179 12.958844 -0.654215 27.480200 -5.216437 -2.221808 -7.354540 -0.073386 0.000000 0.000000 0.000000 
